<?xml version="1.0" encoding="UTF-8"?>
<svg id="Layer_1" data-name="Layer 1" xmlns="http://www.w3.org/2000/svg" viewBox="0 0 236.54 131.25">
  <defs>
    <style>
      .cls-1 {
        fill: #ffe2d1;
      }

      .cls-1, .cls-2, .cls-3, .cls-4, .cls-5, .cls-6, .cls-7, .cls-8, .cls-9, .cls-10, .cls-11, .cls-12 {
        stroke: #000;
      }

      .cls-1, .cls-2, .cls-3, .cls-4, .cls-5, .cls-6, .cls-7, .cls-9, .cls-10, .cls-12 {
        stroke-linecap: round;
        stroke-linejoin: round;
      }

      .cls-1, .cls-2, .cls-3, .cls-5, .cls-7, .cls-9, .cls-10, .cls-12 {
        stroke-width: 2px;
      }

      .cls-2 {
        fill: #e2ff76;
      }

      .cls-3 {
        fill: #a8efff;
      }

      .cls-4 {
        fill: #fff;
      }

      .cls-5, .cls-13 {
        fill: #ecf8ff;
      }

      .cls-6, .cls-8 {
        fill: none;
      }

      .cls-14 {
        fill: #c8e8ff;
      }

      .cls-7 {
        fill: #ff9fbe;
      }

      .cls-8, .cls-11 {
        stroke-miterlimit: 10;
      }

      .cls-15 {
        fill: #bfffeb;
      }

      .cls-9 {
        fill: #3bff9d;
      }

      .cls-10 {
        fill: #d3b6af;
      }

      .cls-16 {
        fill: #ffdafd;
      }

      .cls-12 {
        fill: #5fbcff;
      }

      .cls-17 {
        fill: #fcffdf;
      }
    </style>
  </defs>
  <path class="cls-1" d="M34.82,70.19h-10.65l-18.62,30.92s142.64,6.32,224.44-4.99c0,0-3.99-11.31-21.95-29.6l-173.23,3.66Z"/>
  <path class="cls-10" d="M230.12,96.07c1.54-.13-3.66,18.95-3.66,18.95-27.6,2.33-219.12,5.65-219.12,5.65-3.66-9.64-1.66-19.62-1.66-19.62,0,0,155.78.69,224.44-4.99Z"/>
  <path class="cls-3" d="M101.54,15.2s-2.5,17.86,0,24.85c0,0,59.99.72,87.26,2.17,0,0,17.72-4.59,7.73-24.61,0,0-29.31-4.82-94.98-2.41Z"/>
  <path class="cls-7" d="M102.09,41.19s-2.41,8.93,0,24.37c0,0,63.46,1.93,89.76,1.21,0,0,12.06-8.09,0-23.95,0,0-29.44-2.11-89.76-1.63Z"/>
  <path class="cls-2" d="M102.81,66.48s-8.45,23.14,0,27l90-1.21s10.86-8.69,0-24.13l-90-1.67Z"/>
  <path class="cls-16" d="M129.17,44.92s-2.23,7.44.43,16.3l40.3,1.21s5.07-7.6,1.69-16.22l-42.41-1.29Z"/>
  <path class="cls-17" d="M129.36,72.1s-2.68,10.56,0,16.19c0,0,55.47,1.83,57.86.7,0,0,7.32-4.65,1.27-16.89h-59.13Z"/>
  <line class="cls-6" x1="154.23" y1="50.67" x2="161.13" y2="50.67"/>
  <line class="cls-6" x1="154.23" y1="55.6" x2="161.13" y2="55.6"/>
  <path class="cls-6" d="M143.31,47.78s6.97,4.69-1.42,9.13"/>
  <path class="cls-6" d="M159.53,75.62s-6.49,3.47,0,10.24"/>
  <path class="cls-6" d="M169.15,73.84s-4.68,3.6,0,6.14"/>
  <path class="cls-6" d="M169.15,82.3s-4.59,1.21,0,4.81"/>
  <path class="cls-17" d="M123.07,73.84s-2.66,9.23,0,14.29h-12.69s-3.22-9.34.95-16.02l11.74,1.74Z"/>
  <g>
    <path class="cls-9" d="M39.63,12.26s-6.98,75.04-3.9,77.3,4.9,10.99,28.06,2.61c0,0,6.92-44.6,7.4-76.84,0,0-17.17,4.2-31.56-3.07Z"/>
    <path class="cls-15" d="M45.6,20.32s5.28,4.03,20.69,1.92c0,0-2.12,53.21-5.12,55.05,0,0-7.94,5.52-20.69-1.92,0,0-.07-29.71,5.12-55.05Z"/>
    <line class="cls-4" x1="51.22" y1="40.66" x2="50.6" y2="47.4"/>
    <line class="cls-4" x1="57.96" y1="41.29" x2="57.33" y2="48.03"/>
    <path class="cls-6" d="M46.35,51.73s8.24,6.67,14.64,1.36"/>
    <path class="cls-4" d="M71.2,15.33l-1.18-4.33-1.51.85c-16.23-.2-23.18-2.16-23.18-2.16l-1.94-1.39-3.76,3.96s12.49,7.38,31.56,3.07Z"/>
  </g>
  <path class="cls-13" d="M109.2,36.24c-4.98-9.44,1.57-16.06,1.57-16.06,0,0,40.27-2.02,80.12,1.67,0,0,4.03,7.94-1.93,16.06l-79.76-1.67Z"/>
  <line class="cls-8" x1="159.53" y1="25.08" x2="167.11" y2="25.08"/>
  <line class="cls-8" x1="159.53" y1="30.51" x2="167.07" y2="30.51"/>
  <path class="cls-8" d="M148.35,25.08s-6.59,3.9,0,8.01"/>
  <g>
    <path class="cls-12" d="M66.01,88.66s9.06,10.57,27.39,5.14c0,0,8.61-75.09,7.32-78.75,0,0-12.42,4.65-27.63-2.57l-7.09,76.18Z"/>
    <path class="cls-14" d="M96.82,22.19l-1.83,19.65c-6.88,5.59-20.41-2.65-20.41-2.65l1.76-18.9s13.39,4.03,20.48,1.9Z"/>
    <path class="cls-6" d="M81.07,35.24s6.76,4.66,10.29.96"/>
    <path class="cls-4" d="M101.47,14.85l-2.4-3.68-1.27.51c-14.53,1.49-19.64-1.14-19.78-1.84l-1.66-.94-3.7,3.13s11.31,7.7,28.81,2.82Z"/>
    <line class="cls-11" x1="83.43" y1="25.84" x2="82.26" y2="32.04"/>
    <line class="cls-11" x1="90.27" y1="26.81" x2="90.27" y2="33.09"/>
  </g>
  <path class="cls-5" d="M101.54,15.2l-.52-7.59s80.6-2.05,85.21,1.71l10.29,8.29s-48.48-3.39-94.98-2.41Z"/>
</svg>