<?xml version="1.0" encoding="utf-8"?>
<!-- Generator: Adobe Adobe Illustrator 24.2.0, SVG Export Plug-In . SVG Version: 6.00 Build 0)  -->
<svg version="1.1" id="レイヤー_1" xmlns="http://www.w3.org/2000/svg" xmlns:xlink="http://www.w3.org/1999/xlink" x="0px"
	 y="0px" width="300px" height="300px" viewBox="0 0 300 300" style="enable-background:new 0 0 300 300;" xml:space="preserve">
	   <defs>  
		<linearGradient id="grad1" gradientUnits="userSpaceOnUse">
      <stop id="stop1" offset="0%"/>
      <stop id="stop2" offset="100%"/>
    </linearGradient>
    </defs>
<style type="text/css">
  #stop1 {
  animation: change-color1 5s ease-in-out infinite alternate;
  }
  #stop2 {
    animation: change-color2 5s ease-in-out infinite alternate;
  }
  @keyframes change-color1 {
    0% {stop-color: red;}
    100% {stop-color: gold;}
  }
  @keyframes change-color2 {
    0% {stop-color: blue;}
    100% {stop-color: red;}
  }
</style>     
<g fill="url(#grad1)">
	<path d="M70.07,33.6c4.42,5.9,6.62,13.44,6.62,22.64c0,9.95-2.53,18.22-7.58,24.81c-5.93,7.74-14.38,11.61-25.36,11.61
		c-10.25,0-18.31-3.39-24.18-10.16c-5.23-6.53-7.85-14.79-7.85-24.77c0-9.01,2.24-16.72,6.71-23.13
		c5.75-8.23,14.24-12.34,25.49-12.34C55.71,22.26,64.42,26.04,70.07,33.6z M62.11,76.04c3.55-5.7,5.33-12.25,5.33-19.66
		c0-7.83-2.05-14.14-6.15-18.92c-4.1-4.78-9.7-7.17-16.81-7.17c-6.9,0-12.52,2.37-16.87,7.1c-4.35,4.73-6.53,11.71-6.53,20.93
		c0,7.38,1.87,13.6,5.6,18.67c3.73,5.07,9.79,7.6,18.17,7.6C52.8,84.59,58.56,81.74,62.11,76.04z"/>
	<path  d="M87.22,24.08h12.93l19.14,56.34l19.01-56.34h12.79v66.64h-8.57V51.39c0-1.36,0.03-3.61,0.09-6.76
		c0.06-3.14,0.09-6.52,0.09-10.12l-19.01,56.2h-8.94l-19.14-56.2v2.04c0,1.63,0.04,4.12,0.11,7.46c0.08,3.34,0.11,5.8,0.11,7.37
		v39.33h-8.62V24.08z"/>
	<path  d="M219.72,33.6c4.42,5.9,6.62,13.44,6.62,22.64c0,9.95-2.53,18.22-7.58,24.81
		c-5.93,7.74-14.38,11.61-25.36,11.61c-10.25,0-18.31-3.39-24.18-10.16c-5.23-6.53-7.85-14.79-7.85-24.77
		c0-9.01,2.24-16.72,6.71-23.13c5.75-8.23,14.24-12.34,25.49-12.34C205.35,22.26,214.06,26.04,219.72,33.6z M211.76,76.04
		c3.55-5.7,5.33-12.25,5.33-19.66c0-7.83-2.05-14.14-6.15-18.92c-4.1-4.78-9.7-7.17-16.81-7.17c-6.89,0-12.52,2.37-16.87,7.1
		c-4.36,4.73-6.53,11.71-6.53,20.93c0,7.38,1.87,13.6,5.6,18.67c3.74,5.07,9.79,7.6,18.17,7.6
		C202.45,84.59,208.21,81.74,211.76,76.04z"/>
	<path d="M14.96,117.59h12.93l19.14,56.34l19.01-56.34h12.79v66.64h-8.57V144.9c0-1.36,0.03-3.61,0.09-6.76
		c0.06-3.14,0.09-6.52,0.09-10.12l-19.01,56.2h-8.94l-19.14-56.2v2.04c0,1.63,0.04,4.12,0.11,7.46c0.08,3.34,0.11,5.8,0.11,7.37
		v39.33h-8.62V117.59z"/>
	<path  d="M102.37,117.59v41.19c0,4.84,0.91,8.86,2.72,12.07c2.69,4.84,7.23,7.26,13.61,7.26
		c7.65,0,12.85-2.62,15.6-7.85c1.48-2.84,2.22-6.67,2.22-11.48v-41.19h9.16v37.42c0,8.2-1.1,14.5-3.31,18.92
		c-4.05,8.04-11.7,12.07-22.95,12.07c-11.25,0-18.89-4.02-22.91-12.07c-2.21-4.41-3.31-10.72-3.31-18.92v-37.42H102.37z"/>
	<path  d="M160.75,117.59h30.85c5.08,0,9.27,0.74,12.57,2.22c6.26,2.84,9.39,8.09,9.39,15.74c0,3.99-0.82,7.26-2.47,9.8
		c-1.65,2.54-3.96,4.58-6.92,6.12c2.6,1.06,4.56,2.45,5.87,4.17s2.05,4.52,2.2,8.39l0.32,8.94c0.09,2.54,0.3,4.43,0.63,5.67
		c0.54,2.12,1.51,3.48,2.9,4.08v1.5h-11.07c-0.3-0.57-0.54-1.31-0.73-2.22c-0.18-0.91-0.33-2.66-0.45-5.26l-0.54-11.11
		c-0.21-4.35-1.83-7.27-4.85-8.75c-1.72-0.82-4.43-1.23-8.12-1.23h-20.55v28.58h-9.03V117.59z M190.64,148.12
		c4.23,0,7.58-0.85,10.05-2.54c2.46-1.69,3.7-4.75,3.7-9.16c0-4.75-1.72-7.98-5.17-9.71c-1.84-0.91-4.31-1.36-7.39-1.36h-22.04
		v22.77H190.64z"/>
	<path  d="M281.64,127.11c4.42,5.9,6.62,13.44,6.62,22.64c0,9.95-2.53,18.22-7.58,24.81
		c-5.93,7.74-14.38,11.61-25.36,11.61c-10.25,0-18.31-3.39-24.18-10.16c-5.23-6.53-7.85-14.79-7.85-24.77
		c0-9.01,2.24-16.72,6.71-23.13c5.75-8.23,14.24-12.34,25.49-12.34C267.27,115.77,275.98,119.56,281.64,127.11z M273.68,169.55
		c3.55-5.7,5.33-12.25,5.33-19.66c0-7.83-2.05-14.14-6.15-18.92c-4.1-4.78-9.7-7.17-16.81-7.17c-6.89,0-12.52,2.37-16.87,7.1
		c-4.36,4.73-6.53,11.71-6.53,20.93c0,7.38,1.87,13.6,5.6,18.67c3.74,5.06,9.79,7.6,18.17,7.6
		C264.37,178.1,270.12,175.25,273.68,169.55z"/>
	<path  d="M16.05,267.85h9.48v9.89h-9.48V267.85z"/>
	<path  d="M41.4,211.1h26.99c9.16,0,16.27,3.25,21.32,9.75c4.51,5.87,6.76,13.38,6.76,22.54
		c0,7.08-1.33,13.47-3.99,19.19c-4.69,10.1-12.75,15.15-24.18,15.15H41.4V211.1z M66.58,270.03c3.05,0,5.56-0.32,7.53-0.95
		c3.51-1.18,6.38-3.45,8.62-6.8c1.78-2.69,3.07-6.14,3.86-10.34c0.45-2.51,0.68-4.84,0.68-6.98c0-8.26-1.64-14.67-4.92-19.23
		c-3.28-4.57-8.57-6.85-15.85-6.85H50.48v51.17H66.58z"/>
	<path  d="M108.95,211.1h48.58v8.16h-39.78v20.23h36.79v7.71h-36.79v22.59h40.46v7.94h-49.26V211.1z"/>
	<path  d="M175.31,211.1l19.14,56.75l18.92-56.75h10.12l-24.31,66.63h-9.57l-24.27-66.63H175.31z"/>
</g>
</svg>
